<?xml version="1.0" encoding="UTF-8"?>
<svg width="52px" height="25px" viewBox="0 0 52 25" version="1.1" xmlns="http://www.w3.org/2000/svg" xmlns:xlink="http://www.w3.org/1999/xlink">
    <title>Group 4</title>
    <g id="Mobile" stroke="none" stroke-width="1" fill="none" fill-rule="evenodd">
        <g id="Mobile/Logged-In/Full" transform="translate(-134, -829)">
            <g id="Group-4" transform="translate(134, 829)">
                <circle id="Oval" fill="#4C9443" cx="11" cy="5" r="5"></circle>
                <path d="M22,20.3137085 C22,14.0653198 17.0751322,9 11,9 C4.92486775,9 0,14.0653198 0,20.3137085 C0,26.5620972 22,26.5620972 22,20.3137085 Z" id="Oval" fill="#4C9443"></path>
                <circle id="Oval" fill="#2485B0" cx="41" cy="5" r="5"></circle>
                <path d="M52,20.3137085 C52,14.0653198 47.0751322,9 41,9 C34.9248678,9 30,14.0653198 30,20.3137085 C30,26.5620972 52,26.5620972 52,20.3137085 Z" id="Oval" fill="#2485B0"></path>
                <path d="M9.38010523,14.1024055 L20.3985811,5.54403251 C20.578204,5.40451415 20.7872021,5.30766963 21.0097673,5.26082412 L23.8357728,4.66600652 C24.2921187,4.56995482 24.7399255,4.86203104 24.8359772,5.31837701 C24.8989039,5.61734485 24.7954268,5.92698567 24.5653965,6.12805185 L12.0109479,17.1017146 C11.4283706,17.610937 10.55405,17.5934675 9.99227873,17.0613803 L9.26874473,16.3760778 C8.66728324,15.8063976 8.64151944,14.8569997 9.21119968,14.2555382 C9.26353522,14.2002829 9.32000013,14.1490909 9.38010523,14.1024055 Z" id="Rectangle" fill="#4C9443"></path>
                <path d="M29.0066005,5.37645118 L38.8069335,14.0450278 C39.4274523,14.5938883 39.4855429,15.5418575 38.9366825,16.1623764 C38.9168054,16.1848485 38.8962587,16.2067193 38.8750699,16.2279591 L38.2063327,16.8983084 C37.6212519,17.4847996 36.6715051,17.4859429 36.0850139,16.9008621 C36.0720067,16.8878862 36.059239,16.8746724 36.0467173,16.8612274 L26.2202874,6.31026316 C25.9269932,5.99534335 25.9445241,5.5022884 26.2594439,5.20899412 C26.4036634,5.07467819 26.5934215,5 26.7905002,5 L28.0128007,5 C28.3789075,5 28.7323746,5.13389328 29.0066005,5.37645118 Z" id="Rectangle" fill="#2485B0"></path>
                <rect id="Rectangle" fill="#2485B0" transform="translate(26.5, 3.5) rotate(90) translate(-26.5, -3.5)" x="24" y="2" width="5" height="3" rx="1.5"></rect>
                <rect id="Rectangle" fill="#4C9443" transform="translate(23.5, 3.5) rotate(90) translate(-23.5, -3.5)" x="21" y="2" width="5" height="3" rx="1.5"></rect>
            </g>
        </g>
    </g>
</svg>